<?xml version="1.0" encoding="UTF-8"?><svg id="a" xmlns="http://www.w3.org/2000/svg" viewBox="0 0 46 46"><defs><style>.b{fill:none;stroke-miterlimit:10;}.b,.c{stroke:#404145;stroke-width:1.5px;}.c{fill:#a6eaca;stroke-linecap:round;stroke-linejoin:round;}</style></defs><polygon class="c" points="24.74 26.84 17.31 22.37 17.31 31.32 24.74 26.84"/><path class="b" d="M30.89,23.95l-2.1-4.21h-3.69c-.59,0-1.07-.48-1.07-1.07V2.69c0-.59,.48-1.07,1.07-1.07h18.16c.59,0,1.07,.48,1.07,1.07v15.97c0,.59-.48,1.07-1.07,1.07h-10"/><path class="b" d="M39.86,9.13c0,.63-.25,1.26-.73,1.75l-1.33,1.33-3.48,3.49-4.82-4.82c-.48-.49-.72-1.12-.72-1.75s.24-1.26,.72-1.75c.97-.96,2.53-.96,3.48,0l1.33,1.33,1.33-1.33c.96-.96,2.53-.96,3.48,0,.48,.49,.73,1.12,.73,1.75Z"/><g><line class="b" x1="16.4" y1="40.11" x2="4.6" y2="40.11"/><line class="b" x1="35.88" y1="40.11" x2="19.06" y2="40.11"/><line class="b" x1="16.4" y1="37.8" x2="16.4" y2="42.42"/></g><path class="b" d="M38.4,19.74v23.64c0,.55-.45,1-1,1H2.67c-.55,0-1-.45-1-1V17.61c0-.55,.45-1,1-1H21.4"/><line class="b" x1="1.67" y1="35.38" x2="38.4" y2="35.38"/></svg>