<svg width="46" height="46" viewBox="0 0 46 46" fill="none" xmlns="http://www.w3.org/2000/svg">
<path d="M20.0244 34H1V2H40V19" stroke="#404145" stroke-width="1.5" stroke-miterlimit="10"/>
<path d="M32 40C37.5228 40 42 35.5228 42 30C42 24.4772 37.5228 20 32 20C26.4772 20 22 24.4772 22 30C22 35.5228 26.4772 40 32 40Z" fill="#A6EACA" stroke="#404145" stroke-width="1.5" stroke-miterlimit="10"/>
<path d="M46 30H38" stroke="#404145" stroke-width="1.5" stroke-miterlimit="10"/>
<path d="M26 30H18" stroke="#404145" stroke-width="1.5" stroke-miterlimit="10"/>
<path d="M32 44V36" stroke="#404145" stroke-width="1.5" stroke-miterlimit="10"/>
<path d="M32 24V16" stroke="#404145" stroke-width="1.5" stroke-miterlimit="10"/>
<path d="M32 29V31" stroke="#404145" stroke-width="1.5" stroke-miterlimit="10"/>
<path d="M22.57 18.8599L15.51 23.0899C14.84 23.4899 14 23.01 14 22.23V13.7599C14 12.9799 14.85 12.4999 15.51 12.8999L22.57 17.1299C23.22 17.5299 23.22 18.4699 22.57 18.8599Z" fill="#A6EACA" stroke="#404145" stroke-width="1.5" stroke-miterlimit="10"/>
</svg>
