<svg width="47" height="46" viewBox="0 0 47 46" fill="none" xmlns="http://www.w3.org/2000/svg">
<path d="M18.1384 13.1231C24.5584 4.08307 33.8584 -0.316922 39.9784 3.22308C46.7384 7.12308 47.0684 19.2031 40.7184 30.2031C34.3684 41.2031 23.7384 46.9631 16.9784 43.0531C10.9084 39.5531 10.0284 29.4531 14.5084 19.4631" stroke="#404145" stroke-width="1.5" stroke-miterlimit="10" stroke-linecap="round"/>
<path d="M26.3114 17.5234C28.4014 15.1734 30.6714 14.0134 32.0614 14.8134C33.9714 15.9134 33.5114 20.3034 31.0214 24.6034C28.5314 28.9034 24.9714 31.5034 23.0614 30.3934C21.5214 29.5034 21.5214 26.4834 22.8814 23.1034" fill="#A6EACA"/>
<path d="M26.3114 17.5234C28.4014 15.1734 30.6714 14.0134 32.0614 14.8134C33.9714 15.9134 33.5114 20.3034 31.0214 24.6034C28.5314 28.9034 24.9714 31.5034 23.0614 30.3934C21.5214 29.5034 21.5214 26.4834 22.8814 23.1034" stroke="#404145" stroke-width="1.5" stroke-miterlimit="10" stroke-linecap="round"/>
<path d="M22.1698 15.053C26.4998 9.50302 32.1698 6.80301 35.8398 8.92301C40.1598 11.423 40.0798 19.643 35.6598 27.293C31.2398 34.943 24.1598 39.123 19.8398 36.633C16.0798 34.463 15.6498 27.953 18.5098 21.253" stroke="#404145" stroke-width="1.5" stroke-miterlimit="10" stroke-linecap="round"/>
<path d="M10.7109 12.9131L27.5609 22.6131" stroke="#404145" stroke-width="1.5" stroke-miterlimit="10" stroke-linecap="round"/>
<path d="M9.4511 8.07324L10.7111 12.9132L5.87109 14.1732" stroke="#404145" stroke-width="1.5" stroke-miterlimit="10" stroke-linecap="round"/>
<path d="M4.57 5.20312L5.83 10.0431L1 11.3031" stroke="#404145" stroke-width="1.5" stroke-miterlimit="10" stroke-linecap="round"/>
</svg>
